<svg xmlns="http://www.w3.org/2000/svg" viewBox="0 0 240 100" width="240" height="100">
  
  <g fill="none" stroke="#4D544D" stroke-width="1.5" stroke-linejoin="round">
    
    <path d="M14 70 L14 56 L34 56 L46 36 L168 36 L186 56 L226 56 L226 70 Z" fill="#FFFFFF"></path>
    
    <path d="M46 36 L62 22 L160 22 L168 36 Z" fill="#E2E5E2"></path>
    
    <line x1="106" y1="22" x2="106" y2="36"></line>
    
    <line x1="106" y1="36" x2="106" y2="56"></line>
    
    <circle cx="58" cy="70" r="14" fill="#FFFFFF"></circle>
    <circle cx="180" cy="70" r="14" fill="#FFFFFF"></circle>
    
    <circle cx="58" cy="70" r="9" fill="#20251F"></circle>
    <circle cx="180" cy="70" r="9" fill="#20251F"></circle>
    
    <rect x="86" y="14" width="60" height="8" fill="#1F4D3A" stroke="#0F2A20"></rect>
    <rect x="92" y="16" width="20" height="4" fill="#2E5C8A"></rect>
    <rect x="120" y="16" width="20" height="4" fill="#C7322B"></rect>
    
    <rect x="14" y="54" width="212" height="6" fill="#C9A24B" opacity="0.85"></rect>
  </g>
  
  <rect x="92" y="58" width="56" height="12" fill="#FFFFFF" stroke="#20251F" stroke-width="0.8"></rect>
  <text x="120" y="67" text-anchor="middle" font-family="&#39;JetBrains Mono&#39;, monospace" font-size="9" font-weight="600" fill="#20251F">12-AB-34</text>
</svg>